<svg width="9" height="12" viewBox="0 0 9 12" fill="none" xmlns="http://www.w3.org/2000/svg">
<path d="M7.6245 6.21535C7.2315 6.95368 6.699 7.68924 6.1545 8.3497C5.63741 8.97194 5.08514 9.56835 4.5 10.1364C3.91486 9.56835 3.36259 8.97194 2.8455 8.3497C2.301 7.68924 1.7685 6.95368 1.3755 6.21535C0.978 5.46937 0.75 4.77066 0.75 4.17138C0.75 3.24944 1.14509 2.36527 1.84835 1.71337C2.55161 1.06147 3.50544 0.695229 4.5 0.695229C5.49456 0.695229 6.44839 1.06147 7.15165 1.71337C7.85491 2.36527 8.25 3.24944 8.25 4.17138C8.25 4.77066 8.02125 5.46937 7.6245 6.21535ZM4.5 11.1237C4.5 11.1237 9 7.17059 9 4.17138C9 3.06506 8.52589 2.00405 7.68198 1.22177C6.83807 0.439483 5.69347 0 4.5 0C3.30653 0 2.16193 0.439483 1.31802 1.22177C0.474106 2.00405 1.77842e-08 3.06506 0 4.17138C0 7.17059 4.5 11.1237 4.5 11.1237Z" fill="white"/>
<path d="M4.5 5.56184C4.10218 5.56184 3.72064 5.41535 3.43934 5.15458C3.15804 4.89382 3 4.54015 3 4.17138C3 3.80261 3.15804 3.44894 3.43934 3.18818C3.72064 2.92742 4.10218 2.78092 4.5 2.78092C4.89782 2.78092 5.27936 2.92742 5.56066 3.18818C5.84196 3.44894 6 3.80261 6 4.17138C6 4.54015 5.84196 4.89382 5.56066 5.15458C5.27936 5.41535 4.89782 5.56184 4.5 5.56184ZM4.5 6.25707C5.09674 6.25707 5.66903 6.03733 6.09099 5.64619C6.51295 5.25504 6.75 4.72454 6.75 4.17138C6.75 3.61822 6.51295 3.08772 6.09099 2.69658C5.66903 2.30543 5.09674 2.08569 4.5 2.08569C3.90326 2.08569 3.33097 2.30543 2.90901 2.69658C2.48705 3.08772 2.25 3.61822 2.25 4.17138C2.25 4.72454 2.48705 5.25504 2.90901 5.64619C3.33097 6.03733 3.90326 6.25707 4.5 6.25707Z" fill="white"/>
</svg>
