<svg width="20" height="21" viewBox="0 0 20 21" fill="none" xmlns="http://www.w3.org/2000/svg">
<path d="M0.991717 18.3436C0.487892 18.9005 0.530885 19.7603 1.08774 20.2641C1.6446 20.768 2.50446 20.725 3.00828 20.1681L0.991717 18.3436ZM18.9705 1.93207C18.933 1.18205 18.2946 0.604441 17.5446 0.641941L5.32234 1.25305C4.57232 1.29055 3.99471 1.92896 4.03221 2.67898C4.06971 3.429 4.70812 4.00661 5.45814 3.96911L16.3223 3.42589L16.8656 14.2901C16.9031 15.0401 17.5415 15.6177 18.2915 15.5802C19.0415 15.5427 19.6191 14.9043 19.5816 14.1543L18.9705 1.93207ZM3.00828 20.1681L18.6208 2.91222L16.6042 1.08771L0.991717 18.3436L3.00828 20.1681Z" fill="#1C1A1F"/>
</svg>
