<svg width="18" height="18" viewBox="0 0 18 18" fill="none" xmlns="http://www.w3.org/2000/svg">
<circle cx="9" cy="9" r="8" stroke="white" stroke-width="1.5"/>
<path d="M8.182 8.081H9.456V13.554H8.182V8.081ZM8.234 6.404C8.078 6.248 8 6.053 8 5.819C8 5.585 8.078 5.39 8.234 5.234C8.39 5.078 8.585 5 8.819 5C9.053 5 9.248 5.078 9.404 5.234C9.56 5.39 9.638 5.585 9.638 5.819C9.638 6.053 9.56 6.248 9.404 6.404C9.248 6.56 9.053 6.638 8.819 6.638C8.585 6.638 8.39 6.56 8.234 6.404Z" fill="white"/>
</svg>
