<svg width="40" height="40" viewBox="0 0 40 40" fill="none" xmlns="http://www.w3.org/2000/svg">
<path fill-rule="evenodd" clip-rule="evenodd" d="M18.2372 0.0740261C14.4181 0.403427 10.7656 1.85068 7.62878 4.27744C6.77574 4.93742 4.91817 6.80069 4.26022 7.65634C2.21904 10.311 0.923488 13.1947 0.334176 16.395C-0.704121 22.0343 0.697046 27.7409 4.25944 32.381C5.01435 33.3642 6.90826 35.2211 7.94079 35.9902C11.5746 38.6972 15.4454 39.9935 19.9142 40C23.3269 40.005 26.2359 39.2995 29.2032 37.7473C31.0652 36.7733 32.4607 35.7309 34.0752 34.1081C37.23 30.9371 39.0957 27.1634 39.7257 22.6789C39.7892 22.227 39.8418 21.6746 39.8426 21.4512C39.8434 21.2278 39.8791 21.0233 39.922 20.9967C39.9675 20.9684 40 20.5249 40 19.9312C40 19.273 39.9725 18.9311 39.922 18.9624C39.8738 18.9923 39.8434 18.8521 39.8426 18.5953C39.8418 18.3669 39.7892 17.8103 39.7257 17.3584C39.214 13.7161 37.8966 10.5831 35.6463 7.65634C34.9883 6.80069 33.1307 4.93742 32.2777 4.27744C28.1936 1.11778 23.2601 -0.359202 18.2372 0.0740261ZM18.6714 15.8762C12.8853 18.116 8.66044 19.793 8.50615 19.911C7.99009 20.3059 7.98876 20.7369 8.50296 21.0065C8.64422 21.0806 9.90061 21.4994 11.2949 21.9371L13.83 22.733L14.142 22.5345C19.0197 19.4326 25.4878 15.3866 25.6234 15.3525C25.8625 15.2923 26.0451 15.3696 25.992 15.5085C25.9684 15.5702 23.8454 17.5276 21.2741 19.8584C18.6279 22.2572 16.5986 24.1537 16.5979 24.2286C16.5972 24.3015 16.5276 25.3294 16.4431 26.5128C16.2454 29.2822 16.2446 29.1731 16.4626 29.1727C16.7524 29.1722 17.0462 28.9374 18.3964 27.6267L19.6867 26.3743L22.2086 28.2376C23.5957 29.2624 24.8404 30.1466 24.9745 30.2024C25.1087 30.2582 25.3486 30.3039 25.5077 30.3039C25.8651 30.304 26.2151 29.9962 26.3862 29.5314C26.5883 28.9824 29.7974 13.6651 29.8054 13.2116C29.8182 12.483 29.4442 12.0342 28.83 12.0407C28.6825 12.0422 24.3461 13.6794 18.6714 15.8762ZM0.0150657 20.0187C0.0150657 20.5996 0.0273121 20.8372 0.0423667 20.5468C0.0573433 20.2564 0.0573433 19.781 0.0423667 19.4905C0.0273121 19.2 0.0150657 19.4377 0.0150657 20.0187Z" fill="white"/>
</svg>
