<svg width="41" height="40" viewBox="0 0 41 40" fill="none" xmlns="http://www.w3.org/2000/svg">
<path fill-rule="evenodd" clip-rule="evenodd" d="M40.1503 19.9108C40.1503 19.9404 40.1503 19.97 40.1503 19.9997C40.1503 20.0301 40.1503 20.0604 40.1503 20.0906C40.1022 31.0158 31.2947 39.8726 20.3887 40C20.3096 40 20.2302 40 20.1505 40C20.0706 40 19.9911 40 19.9119 40C9.01634 39.8727 0.21534 31.0329 0.150392 20.1223C0.150393 20.0543 0.150393 19.986 0.150392 19.9175C0.150391 19.9048 0.150391 19.8921 0.150391 19.8794C0.215642 8.88915 9.14489 -6.0397e-09 20.1503 -1.34297e-08C20.1531 -1.34316e-08 20.1559 5.77763e-07 20.1588 1.76004e-06M16.4895 14.1169C15.7177 13.5013 15.7983 13.2125 16.8627 12.7843C17.0887 12.6933 18.2954 12.6459 19.5442 12.6788C21.2146 12.7232 21.8831 12.8476 22.0741 13.15C22.2171 13.3761 22.3377 14.794 22.3423 16.3009C22.3511 19.1402 22.5555 19.9129 23.2303 19.654C23.7561 19.4523 25.5016 16.7968 26.3096 14.9696C26.954 13.5125 26.9641 13.5046 28.4171 13.33C30.7045 13.0555 32.0572 13.118 32.6128 13.5243C33.0753 13.8627 33.0887 13.9852 32.7506 14.8014C32.5449 15.2978 31.5985 16.7878 30.6473 18.1125C29.696 19.4372 28.9179 20.7463 28.9179 21.0217C28.9179 21.2971 29.713 22.3105 30.6851 23.2739C31.6569 24.2372 32.6032 25.3907 32.7882 25.837C33.3254 27.1341 32.6347 27.4555 29.5426 27.3481L27.0165 27.2604L25.3981 25.6584C23.4057 23.6862 22.8785 23.6794 22.4632 25.62L22.1706 26.9864L19.859 26.979C18.0118 26.9733 17.2863 26.8445 16.2463 26.3382C13.7138 25.1052 11.4401 22.3004 8.7345 17.0711C7.93092 15.5178 7.27336 14.0761 7.27336 13.8673C7.27336 13.6588 7.5509 13.4136 7.88982 13.3227C8.83697 13.0689 11.6365 13.1196 12.1606 13.4002C12.4176 13.5377 13.1505 14.6808 13.7892 15.9403C14.9289 18.1884 16.0734 19.7257 16.6065 19.7257C17.1142 19.7257 17.4581 18.2194 17.3504 16.468C17.2572 14.9529 17.1416 14.6367 16.4895 14.1169Z" fill="white"/>
<path fill-rule="evenodd" clip-rule="evenodd" d="M40.1476 20.2653C40.1488 20.1772 40.1494 20.0889 40.1494 20.0004C40.1494 8.95449 31.1951 -7.6753e-09 20.1494 -2.58273e-10C20.0209 -1.7199e-10 19.8927 0.00121182 19.7648 0.00362465L40.1476 20.2653Z" fill="white"/>
</svg>
