<svg width="16" height="16" viewBox="0 0 16 16" fill="none" xmlns="http://www.w3.org/2000/svg">
<path d="M2.02651 13.2323C1.52268 13.7892 1.56567 14.6491 2.12253 15.1529C2.67939 15.6567 3.53925 15.6137 4.04307 15.0568L2.02651 13.2323ZM15.3489 1.96729C15.3114 1.21728 14.673 0.639667 13.923 0.677168L1.70078 1.28828C0.950758 1.32578 0.37315 1.96419 0.410651 2.71421C0.448152 3.46422 1.08656 4.04183 1.83658 4.00433L12.7008 3.46112L13.244 14.3253C13.2815 15.0753 13.9199 15.653 14.6699 15.6155C15.4199 15.578 15.9976 14.9395 15.9601 14.1895L15.3489 1.96729ZM4.04307 15.0568L14.9992 2.94745L12.9826 1.12294L2.02651 13.2323L4.04307 15.0568Z" fill="white"/>
</svg>
